<svg xmlns="http://www.w3.org/2000/svg" viewBox="0 0 87.81 20.83"><defs><style>.cls-1{fill:#fff;}</style></defs><title>Asset 9</title><g id="Layer_2" data-name="Layer 2"><g id="Layer_1-2" data-name="Layer 1"><polygon class="cls-1" points="81.11 13.98 81.11 6.46 82.53 6.46 82.53 9.57 85.67 6.46 87.4 6.46 83.94 9.8 87.81 13.98 85.98 13.98 82.53 10.14 82.53 13.98 81.11 13.98 81.11 13.98"/><path class="cls-1" d="M72.28,14V6.16l5.54,4.6.46.42q.23.22.49.5V6.46h1.31v7.81L74.42,9.59c-.15-.13-.3-.26-.44-.4a5.88,5.88,0,0,1-.4-.44V14Z"/><path class="cls-1" d="M70.07,14l-1-1.94H65.63l-1,1.94H63.12l4.23-7.82L71.57,14Zm-3.92-3h2.43l-.89-1.71c-.05-.11-.11-.24-.16-.38s-.11-.3-.17-.48c0,.16-.1.32-.15.46s-.11.27-.16.39L66.15,11Z"/><path class="cls-1" d="M57.57,14V6.46h2.2a8,8,0,0,1,1.39.09,2.19,2.19,0,0,1,.76.29,1.79,1.79,0,0,1,.63.67,1.92,1.92,0,0,1,.22.92,1.56,1.56,0,0,1-.32,1,1.71,1.71,0,0,1-.94.56,1.88,1.88,0,0,1,1.2.6,1.82,1.82,0,0,1,.44,1.25,2.07,2.07,0,0,1-.19.87,1.91,1.91,0,0,1-.52.7,2.05,2.05,0,0,1-.89.44,8.54,8.54,0,0,1-1.78.13ZM59,13h.49a9,9,0,0,0,1.11-.05,1.58,1.58,0,0,0,.58-.18,1.05,1.05,0,0,0,.4-.4,1.1,1.1,0,0,0,.14-.56,1.12,1.12,0,0,0-.17-.63,1.14,1.14,0,0,0-.49-.42,1.88,1.88,0,0,0-.46-.13,4.75,4.75,0,0,0-.69,0H59V13Zm0-3.32h.54a3.11,3.11,0,0,0,1.43-.24.85.85,0,0,0,.42-.8A1,1,0,0,0,61,7.73a3,3,0,0,0-1.47-.25H59V9.63Z"/><path class="cls-1" d="M46.88,12.47,48,12a1.35,1.35,0,0,0,.57.77,1.91,1.91,0,0,0,1.05.26,1.44,1.44,0,0,0,1-.3,1,1,0,0,0,.36-.81q0-.66-1.22-1.18l-.26-.11a6,6,0,0,1-1.84-1.1,1.69,1.69,0,0,1-.46-1.2,1.84,1.84,0,0,1,.69-1.49,2.77,2.77,0,0,1,1.82-.57,3.36,3.36,0,0,1,1.55.32,1.75,1.75,0,0,1,.86.92L51,8a1.66,1.66,0,0,0-.55-.52,1.4,1.4,0,0,0-.69-.16,1.36,1.36,0,0,0-.87.26.83.83,0,0,0-.32.69Q48.54,9,50,9.55l.17.07a5.17,5.17,0,0,1,1.71,1,1.72,1.72,0,0,1,.46,1.23,2.1,2.1,0,0,1-.75,1.7,3,3,0,0,1-2,.63,3.17,3.17,0,0,1-1.75-.44,2.06,2.06,0,0,1-.89-1.26Z"/><polygon class="cls-1" points="44.38 13.98 44.38 6.46 45.74 6.46 45.74 13.98 44.38 13.98 44.38 13.98"/><path class="cls-1" d="M36.23,14,38.94,10l-2.4-3.59H38L39.18,8.3c.07.09.19.29.36.6l.09.15.2-.34.25-.39,1.27-1.85h1.39L40.3,10l2.64,4h-1.5L40,11.85l0,0-.42-.72-.21.36-.25.38L37.67,14Z"/><path class="cls-1" d="M34.49,14l-1-1.94H30.22l-1,1.94H27.82l4.05-7.82,4,7.82Zm-3.76-3h2.33L32.2,9.31c0-.11-.1-.24-.15-.38s-.11-.3-.16-.48c0,.16-.09.32-.15.46s-.1.27-.16.39L30.72,11Z"/><polygon class="cls-1" points="0 20.83 12.19 0 15.95 6.3 7.82 20.73 0 20.83 0 20.83"/><polygon class="cls-1" points="12.29 12.9 19.81 12.8 24.39 20.73 16.66 20.73 12.29 12.9 12.29 12.9"/></g></g></svg>