<svg xmlns="http://www.w3.org/2000/svg" viewBox="0 0 83.45 16.54"><defs><style>.cls-1{fill-rule:evenodd;}.cls-2{fill:#fff;}.cls-3{fill:#444a4d;}</style></defs><title>Asset 8</title><g id="Layer_2" data-name="Layer 2"><g id="Layer_1-2" data-name="Layer 1"><polyline class="cls-2" points="15.2 16.39 18.02 16.39 20.23 8.15 17.41 8.15 15.2 16.39"/><polyline class="cls-2" points="29.66 16.39 32.48 16.39 34.69 8.15 31.87 8.15 29.66 16.39"/><polyline class="cls-2" points="44.1 16.39 46.92 16.39 49.12 8.15 46.31 8.15 44.1 16.39"/><path class="cls-2" d="M27,11h2.82c.37-1.85-.82-2.81-3.59-2.81-3.19,0-5.37,1.56-6.09,4.28-.66,2.46.65,4,3.65,4s4.83-.94,5.6-3.06H26.61a2.18,2.18,0,0,1-2.13,1.42c-1.36,0-1.9-.87-1.48-2.43a3,3,0,0,1,2.84-2.53c.87,0,1.27.39,1.21,1.16"/><path class="cls-2" d="M14.45,1.43C12.63-1.13,8.07-.16,4.3,3.58S-1.07,12.45.75,15a3.43,3.43,0,0,0,2.56,1.4c.74,0,1.33-.8,1.82-1.9.09-.21.18-.42.26-.63a3.36,3.36,0,0,1-2.9-1.26c-1.63-2.24-.25-6.71,3.05-10A11.63,11.63,0,0,1,6.79,1.58c3.1-2,6.2-2.14,7.65-.15A5.3,5.3,0,0,1,15.13,5a12.91,12.91,0,0,1-3.53,5.72,12,12,0,0,1-3.81,2.6c-.08,1,.13,1.64.87,1.36a15.29,15.29,0,0,0,2.24-1.84C14.67,9.11,16.27,4,14.45,1.43Z"/><path class="cls-2" d="M6.38,8.39c-.3-.4-1-.3-1.77.15-.37.21-.87.07-.28-.64A14.18,14.18,0,0,1,8.12,5.2c.93-.27,2,.1,1.63,1.11a36.39,36.39,0,0,0-2,7,12,12,0,0,0,3.81-2.6A12.91,12.91,0,0,0,15.13,5a5.3,5.3,0,0,0-.69-3.58C13-.55,9.9-.4,6.79,1.58A11.63,11.63,0,0,0,5.55,2.65c-3.3,3.25-4.68,7.73-3.05,10a3.36,3.36,0,0,0,2.9,1.26,19.86,19.86,0,0,0,.79-2.56A5.86,5.86,0,0,0,6.38,8.39ZM9.15,2c.76-.76,1.75-1,2.17-.57s.17,1.4-.58,2.16-1.74,1-2.16.58S8.4,2.8,9.15,2Z"/><path class="cls-3" d="M7.79,13.33a36.39,36.39,0,0,1,2-7c.36-1-.7-1.38-1.63-1.11A14.18,14.18,0,0,0,4.33,7.9c-.58.71-.09.84.28.64.78-.45,1.46-.55,1.77-.15a5.86,5.86,0,0,1-.2,2.93,19.86,19.86,0,0,1-.79,2.56c-.08.21-.16.41-.26.63-.49,1.1-1.09,1.93-1.82,1.9h0A7.18,7.18,0,0,0,8.66,14.7h0C7.92,15,7.71,14.35,7.79,13.33Z"/><path class="cls-3" d="M10.74,3.62c.75-.76,1-1.72.58-2.16S9.91,1.28,9.15,2s-1,1.74-.57,2.17S10,4.37,10.74,3.62Z"/><path class="cls-2" d="M41.48,11H44.3c.37-1.85-.82-2.81-3.59-2.81-3.19,0-5.37,1.56-6.09,4.28-.66,2.46.65,4,3.65,4s4.83-.94,5.6-3.06H41a2.18,2.18,0,0,1-2.13,1.42c-1.36,0-1.9-.87-1.48-2.43a3,3,0,0,1,2.84-2.53c.86,0,1.27.39,1.21,1.16"/><path class="cls-2" d="M53.35,15.08l.64-2.4h1.84c1.42,0,2,.25,1.79,1.22s-.93,1.18-2.22,1.18H53.35m1.52-5.66h1.75c1.32,0,1.93.16,1.7,1s-.93,1-2.29,1H54.33Zm-3.64,7h4.22a4.77,4.77,0,0,0,3-.69,2.92,2.92,0,0,0,1.17-1.64c.3-1.13-.22-1.89-1.5-2.07a2.59,2.59,0,0,0,2.24-1.84,1.36,1.36,0,0,0-.51-1.66,4.21,4.21,0,0,0-2.17-.34h-4.2Z"/><path class="cls-2" d="M64.87,13.75l0,.1a2.21,2.21,0,0,1-2.2,1.71c-.77,0-1.09-.3-.94-.85.2-.76.86-1,2.09-1h1.08m-.65,2.66h1.69a9.29,9.29,0,0,1,.26-1.28l.62-2.3c.41-1.52-.35-2.3-2.26-2.3s-3,.64-3.41,1.72h1.63c.21-.54.68-.79,1.46-.79s1.18.39,1,1.22l0,.1h-.89c-2.52,0-3.88.46-4.27,1.91-.3,1.12.41,1.86,1.91,1.86a3.67,3.67,0,0,0,2.5-.93Z"/><path class="cls-2" d="M67.37,16.4h1.71l.79-2.94a2.43,2.43,0,0,1,2.28-1.81c1,0,1.34.58,1,1.75l-.8,3H74L75,12.88c.4-1.49-.36-2.35-2-2.35a3.51,3.51,0,0,0-2.69,1.14l.2-1H68.81q-.26,1.36-.35,1.68L67.37,16.4"/><polyline class="cls-2" points="75.55 16.4 77.21 16.4 78.04 13.3 80.28 16.4 82.55 16.4 80.03 13.12 83.45 10.66 81.31 10.66 78.13 12.97 79.42 8.16 77.76 8.16 75.55 16.4"/></g></g></svg>