<svg xmlns="http://www.w3.org/2000/svg" xmlns:xlink="http://www.w3.org/1999/xlink" version="1.1" x="0px" y="0px" viewBox="0 0 100 100" enable-background="new 0 0 100 100" xml:space="preserve" style="&#10;    fill: #444a4d;&#10;"><g><path d="M11.7,50.5c0-0.8-0.7-1.5-1.5-1.5c0,0,0,0,0,0c-0.8,0-1.5,0.7-1.5,1.5c0,3.4,0.4,6.7,1.2,9.9c0.2,0.7,0.8,1.1,1.5,1.1   c0.1,0,0.2,0,0.4,0c0.8-0.2,1.3-1,1.1-1.8C12.1,56.8,11.7,53.7,11.7,50.5z"/></g><g><path d="M11,42.4c0.1,0,0.2,0,0.4,0c0.7,0,1.3-0.5,1.5-1.1c0.7-3,1.8-5.9,3.3-8.7c0.4-0.7,0.1-1.6-0.6-2c-0.7-0.4-1.6-0.1-2,0.6   c-1.6,3-2.7,6.1-3.5,9.4C9.7,41.4,10.2,42.2,11,42.4z"/></g><g><path d="M87.6,41.1c0.2,0.7,0.8,1.1,1.5,1.1c0.1,0,0.2,0,0.4,0c0.8-0.2,1.3-1,1.1-1.8c-0.8-3.2-2-6.4-3.6-9.3c-0.4-0.7-1.3-1-2-0.6   c-0.7,0.4-1,1.3-0.6,2C85.8,35.2,86.9,38.1,87.6,41.1z"/></g><g><path d="M35.9,14.5c0.2,0,0.4,0,0.5-0.1c2.9-1.1,5.9-1.9,9-2.2c0.8-0.1,1.4-0.8,1.3-1.7c-0.1-0.8-0.9-1.4-1.7-1.3   c-3.3,0.4-6.6,1.2-9.7,2.4c-0.8,0.3-1.2,1.2-0.9,1.9C34.7,14.2,35.3,14.5,35.9,14.5z"/></g><g><path d="M54.8,12.2c3.1,0.4,6.1,1.1,9,2.2c0.2,0.1,0.4,0.1,0.5,0.1c0.6,0,1.2-0.4,1.4-1c0.3-0.8-0.1-1.6-0.9-1.9   c-3.1-1.2-6.4-2-9.7-2.4c-0.8-0.1-1.6,0.5-1.7,1.3C53.3,11.3,53.9,12.1,54.8,12.2z"/></g><g><path d="M16.1,68.4c-0.4-0.7-1.3-1-2-0.6s-1,1.3-0.6,2c1.6,3,3.5,5.7,5.7,8.2c0.3,0.3,0.7,0.5,1.1,0.5c0.4,0,0.7-0.1,1-0.4   c0.6-0.6,0.7-1.5,0.1-2.1C19.4,73.7,17.6,71.2,16.1,68.4z"/></g><g><path d="M90.3,48.8c-0.8,0-1.5,0.7-1.5,1.5v0.2c0,3.1-0.4,6.2-1.1,9.2c-0.2,0.8,0.3,1.6,1.1,1.8c0.1,0,0.2,0,0.4,0   c0.7,0,1.3-0.5,1.5-1.1c0.8-3.2,1.2-6.6,1.2-9.9v-0.2C91.8,49.5,91.1,48.8,90.3,48.8z"/></g><g><path d="M80.1,25.3c0.4,0,0.7-0.1,1-0.4c0.6-0.6,0.7-1.5,0.1-2.1c-2.2-2.5-4.8-4.7-7.5-6.6c-0.7-0.5-1.6-0.3-2.1,0.4   c-0.5,0.7-0.3,1.6,0.4,2.1c2.6,1.8,4.9,3.8,7,6.1C79.3,25.1,79.7,25.3,80.1,25.3z"/></g><g><path d="M36.6,86.5c-2.9-1.1-5.7-2.5-8.2-4.3c-0.7-0.5-1.6-0.3-2.1,0.4c-0.5,0.7-0.3,1.6,0.4,2.1c2.8,1.9,5.7,3.5,8.9,4.6   c0.2,0.1,0.4,0.1,0.5,0.1c0.6,0,1.2-0.4,1.4-1C37.8,87.7,37.4,86.8,36.6,86.5z"/></g><g><path d="M54.9,88.7c-3.1,0.4-6.2,0.4-9.3,0c-0.8-0.1-1.6,0.5-1.7,1.3c-0.1,0.8,0.5,1.6,1.3,1.7c1.6,0.2,3.3,0.3,5,0.3   c1.7,0,3.4-0.1,5-0.3c0.8-0.1,1.4-0.8,1.3-1.7C56.5,89.2,55.7,88.6,54.9,88.7z"/></g><g><path d="M72.1,82.2c-2.6,1.8-5.3,3.2-8.2,4.3c-0.8,0.3-1.2,1.2-0.9,1.9c0.2,0.6,0.8,1,1.4,1c0.2,0,0.4,0,0.5-0.1   c3.1-1.2,6.1-2.8,8.9-4.7c0.7-0.5,0.9-1.4,0.4-2.1C73.8,81.9,72.8,81.7,72.1,82.2z"/></g><g><path d="M90.3,76.6l-1.9-9.7c-0.2-0.8-0.9-1.3-1.8-1.2l-9.7,1.9c-0.8,0.2-1.3,0.9-1.2,1.8c0.2,0.8,1,1.3,1.8,1.2l6.2-1.2   c-1.3,2.3-2.8,4.4-4.6,6.4c-0.5,0.6-0.5,1.6,0.1,2.1c0.3,0.3,0.6,0.4,1,0.4c0.4,0,0.8-0.2,1.1-0.5c1.8-2,3.4-4.3,4.8-6.6l1.2,6.1   c0.1,0.7,0.8,1.2,1.5,1.2c0.1,0,0.2,0,0.3,0C89.9,78.2,90.4,77.4,90.3,76.6z"/></g><g><path d="M27.9,24.4h-6.4c2-2.2,4.3-4.2,6.7-6c0.7-0.5,0.8-1.4,0.4-2.1s-1.4-0.8-2.1-0.4c-2.6,1.8-4.9,3.9-7,6.2V16   c0-0.8-0.7-1.5-1.5-1.5s-1.5,0.7-1.5,1.5v9.9c0,0.8,0.7,1.5,1.5,1.5h9.9c0.8,0,1.5-0.7,1.5-1.5S28.7,24.4,27.9,24.4z"/></g><path d="M50.2,19.1c-1.6,0-3.2,0.1-4.8,0.4c-0.3,0-0.6,0-0.8,0.2C30,22.2,18.9,35.1,18.9,50.5c0,17.3,14.1,31.4,31.4,31.4  s31.4-14.1,31.4-31.4S67.5,19.1,50.2,19.1z M74.4,35.5c2.5,4.1,4.1,8.9,4.2,14H66.8c-0.1-4.8-0.9-9.5-2.4-14H74.4z M63.6,25.5  c3.3,1.8,6.2,4.2,8.6,7.1h-8.8c0.6-1.5,0.9-2.8,0.9-3.8C64.3,27.6,64.1,26.5,63.6,25.5z M63.8,49.5H36.1c0.1-4.8,1-9.5,2.6-14h11.9  c1.7,3.6,3.8,7.3,4.5,8.4c0.3,0.5,0.8,0.7,1.3,0.7s1-0.3,1.3-0.7c0.6-1,2.4-4,3.9-7.3C62.9,40.8,63.7,45.2,63.8,49.5z M42.2,66.4  c-2.1,0-3.7-1.7-3.7-3.7c0-2.1,1.7-3.7,3.7-3.7c2.1,0,3.7,1.7,3.7,3.7C45.9,64.7,44.2,66.4,42.2,66.4z M42.2,55.9  c-2.2,0-4.1,1-5.4,2.7c-0.4-2-0.6-4-0.7-6h27.6c-0.2,4.9-1.2,9.6-2.9,14H47.6c0.8-1.1,1.3-2.5,1.3-3.9  C48.9,58.9,45.9,55.9,42.2,55.9z M55,23.9c0.2-0.1,0.4-0.1,0.6-0.1c0.3,0,0.5-0.1,0.8-0.1c0.3,0,0.6,0,0.9,0.1c0.1,0,0.2,0,0.3,0.1  c0.2,0,0.4,0.1,0.6,0.2c0.1,0,0.2,0.1,0.3,0.1c0.2,0.1,0.5,0.2,0.7,0.4c0,0,0,0,0,0c1.2,0.8,2.1,2.2,2.2,3.8l0,0c0,0.1,0,0.3,0,0.4  c0,0.1,0,0.3,0,0.5c0,0.1,0,0.1,0,0.2c0,0.1-0.1,0.3-0.1,0.4c0,0.1,0,0.1-0.1,0.2c-0.1,0.2-0.1,0.4-0.2,0.6c0,0,0,0.1,0,0.1  c-0.1,0.3-0.2,0.5-0.3,0.8c0,0,0,0.1,0,0.1c-0.1,0.3-0.2,0.5-0.3,0.8c0,0.1,0,0.1-0.1,0.2c-0.1,0.3-0.2,0.6-0.4,0.9c0,0,0,0,0,0.1  c-0.3,0.7-0.6,1.4-1,2.1c-0.8,1.6-1.6,3.2-2.5,4.7c-0.8-1.5-1.7-3.1-2.5-4.7c-0.3-0.5-0.5-1-0.7-1.5c0,0,0,0,0,0  c-0.2-0.5-0.4-1-0.6-1.5c-0.7-1.6-1.1-3-1.1-3.8C51.4,26.4,52.9,24.5,55,23.9z M46.1,22.4c1.4-0.2,2.8-0.3,4.2-0.3  c0.5,0,1.1,0,1.6,0.1c-2.1,1.4-3.5,3.9-3.5,6.6c0,1,0.4,2.3,0.9,3.8h-9.4C41.5,28.9,43.5,25.5,46.1,22.4z M41.5,23.5  c-2,2.8-3.6,5.9-4.9,9.1h-8.4C31.7,28.4,36.3,25.2,41.5,23.5z M26.1,35.5h9.4c-1.5,4.5-2.3,9.2-2.4,14H21.9  C22,44.4,23.6,39.6,26.1,35.5z M26.9,66.5c-2.8-4-4.6-8.8-4.9-14h11.2c0.2,4.8,1.1,9.5,2.7,14H26.9z M29.2,69.5H37  c1.2,2.7,2.6,5.4,4.3,7.9C36.7,75.8,32.5,73.1,29.2,69.5z M54,78.6c-1.2,0.2-2.5,0.3-3.7,0.3c-1.5,0-2.9-0.1-4.4-0.3c0,0,0,0,0,0  c-2.2-2.8-4.1-5.8-5.5-8.9h19.3c-1.5,3.1-3.3,6.1-5.5,8.9C54,78.5,54,78.5,54,78.6z M58.4,77.6c1.8-2.6,3.3-5.3,4.5-8.1h8.3  C67.8,73.3,63.4,76.1,58.4,77.6z M73.6,66.5h-9.5c1.6-4.5,2.5-9.2,2.7-14h11.8C78.1,57.7,76.4,62.5,73.6,66.5z"/></svg>