<svg xmlns="http://www.w3.org/2000/svg" xmlns:xlink="http://www.w3.org/1999/xlink" version="1.1" x="0px" y="0px" viewBox="0 0 100 100" style="enable-background:new 0 0 100 100;fill: #444a4d;" xml:space="preserve"><path d="M50,17.517c-16.152,0-29.292,13.14-29.292,29.292S33.848,76.101,50,76.101S79.292,62.96,79.292,46.809  S66.152,17.517,50,17.517z M50,73.101c-14.498,0-26.292-11.795-26.292-26.292S35.502,20.517,50,20.517s26.292,11.794,26.292,26.292  S64.498,73.101,50,73.101z"/><path d="M68.851,40.478c-0.177-0.543-0.646-0.939-1.211-1.021L56.38,37.82l-5.035-10.203c-0.253-0.512-0.774-0.836-1.345-0.836  s-1.092,0.324-1.345,0.836L43.62,37.82l-11.26,1.636c-0.565,0.082-1.034,0.478-1.211,1.021c-0.176,0.543-0.029,1.139,0.38,1.538  l8.147,7.942l-1.923,11.214c-0.096,0.563,0.135,1.131,0.597,1.467c0.462,0.335,1.074,0.379,1.58,0.114L50,57.458l10.071,5.294  c0.22,0.115,0.459,0.172,0.698,0.172c0.311,0,0.62-0.097,0.882-0.287c0.462-0.335,0.693-0.904,0.597-1.467l-1.923-11.214  l8.147-7.942C68.88,41.617,69.027,41.021,68.851,40.478z M57.666,48.359c-0.354,0.345-0.515,0.841-0.432,1.328l1.543,8.996  l-8.079-4.247c-0.219-0.115-0.458-0.172-0.698-0.172s-0.479,0.058-0.698,0.172l-8.079,4.247l1.543-8.996  c0.083-0.486-0.078-0.983-0.432-1.328l-6.535-6.371l9.032-1.313c0.488-0.071,0.911-0.378,1.129-0.82L50,31.671l4.039,8.185  c0.219,0.442,0.641,0.75,1.129,0.82l9.032,1.313L57.666,48.359z"/><path d="M83.116,67.155c3.652-5.923,5.765-12.892,5.765-20.346c0-21.44-17.442-38.882-38.882-38.882S11.118,25.369,11.118,46.809  c0,7.455,2.113,14.423,5.765,20.346L5.439,78.599c-0.412,0.412-0.548,1.025-0.35,1.572c0.199,0.548,0.697,0.931,1.277,0.982  l8.771,0.781l0.781,8.771c0.052,0.581,0.435,1.079,0.983,1.277c0.167,0.061,0.339,0.09,0.511,0.09c0.391,0,0.775-0.153,1.062-0.44  L29.97,80.121c5.854,3.533,12.708,5.57,20.03,5.57s14.176-2.037,20.03-5.57l11.495,11.513c0.287,0.287,0.67,0.44,1.062,0.44  c0.172,0,0.345-0.029,0.511-0.09c0.548-0.199,0.931-0.697,0.983-1.277l0.781-8.771l8.771-0.781c0.581-0.052,1.078-0.435,1.277-0.982  c0.199-0.547,0.063-1.161-0.35-1.572L83.116,67.155z M18.623,87.239l-0.607-6.82c-0.064-0.724-0.638-1.297-1.361-1.361L9.831,78.45  l8.76-8.76c2.457,3.363,5.44,6.315,8.826,8.74L18.623,87.239z M14.118,46.809c0-19.786,16.097-35.882,35.882-35.882  s35.882,16.097,35.882,35.882c0,19.785-16.097,35.882-35.882,35.882S14.118,66.594,14.118,46.809z M83.346,79.058  c-0.724,0.064-1.297,0.638-1.361,1.361l-0.607,6.82l-8.795-8.809c3.387-2.426,6.37-5.377,8.826-8.74l8.76,8.76L83.346,79.058z"/></svg>