<svg xmlns:dc="http://purl.org/dc/elements/1.1/" xmlns:cc="http://creativecommons.org/ns#" xmlns:rdf="http://www.w3.org/1999/02/22-rdf-syntax-ns#" xmlns:svg="http://www.w3.org/2000/svg" xmlns="http://www.w3.org/2000/svg" xmlns:sodipodi="http://sodipodi.sourceforge.net/DTD/sodipodi-0.dtd" xmlns:inkscape="http://www.inkscape.org/namespaces/inkscape" version="1.1" x="0px" y="0px" viewBox="0 0 100 100" style="&#10;"><g transform="translate(0,-952.36218)" style="&#10;    fill: #444a4d;&#10;"><path style="font-size:medium;font-style:normal;font-variant:normal;font-weight:normal;font-stretch:normal;text-indent:0;text-align:start;text-decoration:none;line-height:normal;letter-spacing:normal;word-spacing:normal;text-transform:none;direction:ltr;block-progression:tb;writing-mode:lr-tb;text-anchor:start;baseline-shift:baseline;opacity:1;color:#444a4d;fill: #444a4d;fill-opacity:1;stroke:none;stroke-width:3.09523796999999990;marker:none;visibility:visible;display:inline;overflow:visible;enable-background:accumulate;font-family:Sans;-inkscape-font-specification:Sans;" d="M 50 5.96875 C 25.72316 5.96875 5.96875 25.72314 5.96875 50 C 5.96875 74.2768 25.72316 94.03125 50 94.03125 C 65.860017 94.03125 79.973366 85.6913 87.71875 73.0625 C 88.268529 72.1638 87.961177 70.83095 87.0625 70.28125 C 86.163823 69.73145 84.831029 70.07005 84.28125 70.96875 C 77.257258 82.42135 64.459959 89.96875 50 89.96875 C 27.88492 89.96875 10.03125 72.1151 10.03125 50 C 10.03125 27.8849 27.88492 10.03125 50 10.03125 C 64.27753 10.03125 76.791965 17.488344 83.875 28.71875 L 74.5625 26.0625 A 2.0025009 2.0025009 0 1 0 73.4375 29.90625 L 87.4375 33.90625 A 2.0001999 2.0001999 0 0 0 89.9375 32.53125 L 93.9375 18.53125 A 2.0001999 2.0001999 0 0 0 91.75 15.96875 A 2.0001999 2.0001999 0 0 0 90.0625 17.4375 L 87.40625 26.75 C 79.623964 14.286324 65.748454 5.96875 50 5.96875 z M 49.78125 19.96875 A 2.0001999 2.0001999 0 0 0 48 22 L 48 50 A 2.0001999 2.0001999 0 0 0 49.09375 51.78125 L 69.09375 61.78125 A 2.012451 2.012451 0 0 0 70.90625 58.1875 L 52 48.75 L 52 22 A 2.0001999 2.0001999 0 0 0 49.78125 19.96875 z " transform="translate(0,952.36218)"/></g></svg>