<?xml version="1.0" encoding="utf-8"?>
<!-- Generator: Adobe Illustrator 22.0.1, SVG Export Plug-In . SVG Version: 6.00 Build 0)  -->
<svg version="1.0" id="Layer_1" xmlns="http://www.w3.org/2000/svg" xmlns:xlink="http://www.w3.org/1999/xlink" x="0px" y="0px"
	 viewBox="0 0 161.1 145.7" style="enable-background:new 0 0 161.1 145.7;" xml:space="preserve">
<style type="text/css">
	.st0{fill:none;stroke:#ffffff;stroke-width:1.6235;stroke-miterlimit:10;}
	.st1{fill:#ffffff}
</style>
<title>Mia</title>
<g>
	<path class="st1" d="M112.8,56.3c1.3,0.1,3.7-2.8,7.1-8.9c-5-1.6-7.9-0.4-8.6,3.5C110.8,53.7,111.3,55.5,112.8,56.3"/>
	<path class="st1" d="M92.3,19.8H91c0,0-6.4-4.1-32,48.1c0,0-11.7,26.3,1-6.8l0.9-2.9c24.2-49.2,20.9-53,20.9-53s0.4-6.4-4.6-3.3
		c-3.5,2.1-11.1,12.8-11.6,14.1L54.2,35.2c-57.3,108.4-27.9,71.5-27.9,71.5l7.4-16.6l25.6-52.8c7.3-13.6,11.9-22.4,14.5-25v0.4
		L73,16.1l-0.4,1.7c-37.1,87.6-24.2,79.4-24.2,79.4c0.6,0,3.3-4.8,7.9-14.3c0,0,28.6-60.2,32.6-54.2c-24.7,59-14.1,73.1-14.1,73.1
		s4.2,6.8,15.6-5.6c0.1,6.2,9.8,0.1,11.2-1.4l6.6-6c0.3-0.3,0.5-0.5,0.7-0.7c0.2,4.5,8.5,3.7,17.4-4c0,8.5,10.7-0.7,10.7-0.7
		c4-3,1.3-4.9,1.3-4.9c-10.3,10.1-3.1-2.7-0.4-7.4c2-2.4,4.5-6.7,4.4-13.3c0-2-2.6-1.7-4.8-0.2c-1.2-0.8-2.9-1.7-5.1-0.9
		c-9.3,4.6-20.1,13.5-23,27.4c-3.2,2.9-17.1,15.2-7.1-0.4c1.7-2.6,2.8-4.6,4.2-7.4c1.2-2.4,2.1-4.3,0.9-6.7l-1.4-0.5l-5.5,8.2
		c0,0-4.8,6.3-11.4,13.5c0,0,0,0-0.1,0c-0.5,0.5-0.9,1.1-1.4,1.6c-1,1.1-2.2,2.3-3.3,3.4c-2.6,2.5-4.8,3.9-5.3,2.4
		c-6.7-20.5,14.9-66.5,14.9-66.5c2.3-5.4,1.7-8,1.7-8S95.8,20.4,92.3,19.8 M119.2,83.6c-2.5,1.6-3.8,1.4-3.9-0.5
		c1.5-6,3.6-12.5,15.6-19.8l3.9-1.9l0.5,1C132.5,72.6,127.1,79.7,119.2,83.6"/>
	<g>
		<path class="st1" d="M28.9,139.6c-0.5,0.2-0.9,0.3-1.2,0.3c-0.8,0-1.3-0.1-1.4-0.4c-1.4-3.5-2.3-5.8-2.7-6.9c-0.1,0.4-0.1,1.2-0.3,2.6
			c-0.4,2.6-0.6,4.8-0.6,6.6c0,0.4,0,1,0.1,1.7c-1,0-1.6-0.1-2-0.3c-0.3-0.2-0.5-0.5-0.5-1c0-0.1,0.2-2,0.7-5.6
			c0.5-3.6,0.7-6.2,0.7-7.6V129c-0.4-0.7-0.8-1.2-1.3-1.6c0.5-0.4,1.1-0.5,1.8-0.5c0.9,0,1.6,0.4,2.1,1.3c0.5,0.9,1.5,3.2,2.9,7
			l1,2.4c0.1-0.1,0.2-0.3,0.4-0.6c3.4-5,5.1-8.4,5.2-10.2c0,0,0.2,0,0.5,0.1c0.3,0,0.7,0.1,1.1,0.2c0.4,0.1,0.7,0.3,0.8,0.5
			c0.2,0.2,0.3,0.5,0.3,0.7c0,0.2,0.1,0.6,0.1,1.2c0,0.5-0.2,2.4-0.7,5.5s-0.7,5.3-0.7,6.5c0,1.2,0.1,2.1,0.3,2.6
			c-1.2-0.3-2-0.7-2.4-1.2c-0.4-0.5-0.7-1.2-0.7-2.1c0-0.5,0.1-1.8,0.4-3.9s0.5-3.7,0.6-4.9c-0.6,1-1.3,2.3-2.4,3.9
			c-1,1.6-1.6,2.6-1.8,2.9C29.2,139.2,29,139.5,28.9,139.6z"/>
		<path class="st1" d="M43.3,138.4c-0.7,0-1.3-0.1-2-0.2c0,0.1,0,0.3,0,0.7c0,1.2,0.2,2,0.7,2.6c0.4,0.6,0.9,0.9,1.5,0.9s1.2-0.2,1.7-0.5
			c0.5-0.4,1-0.9,1.4-1.5c0.5,0.1,0.7,0.4,0.7,0.8c-1.2,1.9-2.8,2.8-4.7,2.8c-1.2,0-2.2-0.5-3-1.3c-0.9-0.9-1.3-2.1-1.3-3.7
			c0-1.2,0.2-2.3,0.7-3.4c0.5-1.1,1.2-2,2.2-2.7s2.1-1.1,3.3-1.1c1.2,0,2.1,0.3,2.7,0.8c0.6,0.6,0.9,1.3,0.9,2.2
			c0,1.3-0.5,2.3-1.4,2.9C45.7,138.1,44.6,138.4,43.3,138.4z M44.2,132.8c-0.7,0-1.3,0.4-1.8,1.3c-0.5,0.9-0.8,1.9-1,3.2h0.3
			c1.2,0,2.1-0.3,2.7-0.9c0.6-0.6,0.9-1.4,0.9-2.2c0-0.4-0.1-0.7-0.3-0.9C44.8,133,44.5,132.8,44.2,132.8z"/>
		<path class="st1" d="M59.5,127.9c0.1,0.2,0.2,0.5,0.2,0.6c0,0.2,0,0.5,0,1c0,0.5-0.2,2.3-0.7,5.4c-0.5,3.1-0.7,5.3-0.7,6.5
			c0,1.2,0.1,2.1,0.3,2.6c-1.2-0.3-2-0.7-2.4-1.2s-0.7-1.2-0.7-2.1c0-0.5,0.1-1.9,0.4-4c0.5-3.5,0.8-6.3,0.8-8.3c0-0.4,0-1-0.1-1.7
			c1,0.1,1.8,0.2,2.3,0.5C59.3,127.5,59.4,127.7,59.5,127.9z"/>
		<path class="st1" d="M69.7,131.5c0.8,0,1.4,0.3,1.8,0.8c0.4,0.5,0.5,1.2,0.5,2c0,0.9-0.1,2.1-0.4,3.6c-0.3,1.6-0.4,2.7-0.4,3.4
			s0.1,1.2,0.3,1.6c0.2,0.3,0.5,0.6,0.9,0.9c-0.2,0-0.4,0-0.8,0c-1.2,0-2-0.2-2.5-0.5c-0.5-0.4-0.7-1-0.7-1.9c0-0.5,0.1-1.5,0.4-3
			c0.3-1.5,0.4-2.6,0.4-3.3c0-0.9-0.3-1.4-0.8-1.4c-0.3,0-0.7,0.2-1.1,0.6c-0.4,0.4-0.8,0.9-1.2,1.5c-0.4,0.7-0.7,1.5-0.9,2.5
			c-0.3,1-0.4,2-0.4,3c0,1,0.1,1.8,0.1,2.2c-0.5,0-0.7,0.1-0.9,0.1c-0.8,0-1.4-0.1-1.7-0.4c-0.3-0.3-0.5-0.7-0.5-1.4
			c0-0.3,0.1-1.3,0.4-3.2c0.3-1.8,0.4-3.3,0.4-4.4s-0.1-2.1-0.3-3c1,0.3,1.7,0.8,2.1,1.4c0.4,0.6,0.6,1.2,0.6,2
			c0,0.8-0.1,1.6-0.3,2.6c0.5-1.6,1.2-2.9,2.2-3.9C68,132.1,68.9,131.5,69.7,131.5z"/>
		<path class="st1" d="M89.8,143.8c-0.5,0-0.9-0.1-1.1-0.4c-0.2-0.3-0.4-0.7-0.6-1.2s-0.5-1.9-1-4.2c-0.3,0.3-0.8,0.4-1.6,0.5l-3.5,0.1
			c-0.9,2.1-1.5,3.9-1.9,5.5c-1.3-0.5-2-1-2-1.6c0-0.3,0.4-1.2,1.2-2.9s1.7-3.6,2.7-5.8c1-2.2,1.7-3.7,2.1-4.7l0.4-1
			c-0.1-0.2-0.4-0.5-0.8-1c0.5-0.2,0.9-0.3,1.3-0.3s0.7,0,0.9,0.1c0.3,0.1,0.5,0.1,0.7,0.3c0.2,0.1,0.4,0.3,0.5,0.4
			c0.1,0.1,0.3,0.3,0.4,0.6s0.2,0.5,0.3,0.7c0.1,0.2,0.2,0.5,0.3,0.9s0.2,0.7,0.3,1c0.1,0.3,0.1,0.7,0.3,1.2s0.2,1,0.3,1.5
			c0.1,0.5,0.3,1.4,0.6,2.7c0.3,1.3,0.5,2.3,0.7,2.9c0.2,0.7,0.4,1.4,0.7,2.2c0.3,0.8,0.6,1.4,0.9,1.9
			C90.9,143.6,90.3,143.8,89.8,143.8z M85.5,130.9c-0.2,0.5-0.6,1.4-1.3,2.8s-1.2,2.6-1.5,3.5h4.3C86.3,134.2,85.8,132.1,85.5,130.9
			z"/>
		<path class="st1" d="M95.1,138.8c0,2.3,0.7,3.5,2,3.5c0.5,0,1-0.2,1.6-0.5c0.5-0.4,1-0.9,1.4-1.5c0.5,0.1,0.7,0.4,0.7,0.8
			c-0.6,1-1.3,1.7-2.1,2.2c-0.9,0.4-1.7,0.7-2.5,0.7c-1.1,0-2.1-0.4-2.9-1.2c-0.8-0.8-1.2-2-1.2-3.6c0-2,0.6-3.8,1.7-5.2
			c1.1-1.4,2.6-2.2,4.5-2.2c1,0,1.9,0.3,2.4,0.8c0.5,0.5,0.8,1.1,0.8,1.8c0,0.7-0.2,1.3-0.7,1.9c-0.4,0.5-1,0.8-1.7,0.8
			c-0.3,0-0.7-0.1-1-0.2c0.2-0.2,0.4-0.6,0.6-1.1c0.2-0.5,0.3-1,0.3-1.4c0-0.9-0.4-1.3-1.1-1.3c-0.9,0-1.6,0.6-2.1,1.9
			C95.4,136,95.1,137.4,95.1,138.8z"/>
		<path class="st1" d="M107.3,133.8c-0.1,0.5-0.2,1.4-0.4,2.6c-0.5,2.6-0.7,4.5-0.7,5.8c0,1.3,0.1,2.1,0.3,2.5c-1.1-0.3-1.8-0.7-2.2-1.3
			c-0.4-0.6-0.6-1.4-0.6-2.4c0-0.9,0.1-2.2,0.4-3.8c0.3-1.6,0.5-2.7,0.6-3.3c-0.7,0.1-1.5,0.4-2.3,0.7c0-0.3,0-0.5,0-0.7
			c0-0.7,0.2-1.2,0.7-1.5c0.5-0.3,1.1-0.4,1.9-0.4c0.1-1,0.1-1.8,0.1-2.2s0-0.8,0-1.1s0-0.5,0-0.7c0.9,0.1,1.6,0.4,2,0.8
			c0.4,0.5,0.6,1.1,0.6,1.9c0,0.3,0,0.8-0.1,1.4c1.2,0,2-0.3,2.6-0.7c0,0.3,0,0.5,0,0.6c0,0.7-0.1,1.1-0.3,1.4
			c-0.2,0.3-0.6,0.4-1.2,0.4C108,133.8,107.6,133.8,107.3,133.8z"/>
		<path class="st1" d="M113.6,136.5c-0.3,2-0.5,3.6-0.5,4.9s0.1,2.1,0.3,2.5c-1.1-0.3-1.8-0.7-2.2-1.2s-0.6-1.4-0.6-2.5c0-0.6,0.1-1.6,0.3-3.1
			c0.2-1.5,0.3-2.7,0.3-3.5c0-0.9,0-1.5-0.1-2c0.3,0,0.6-0.1,0.9-0.1c0.8,0,1.4,0.1,1.7,0.4c0.3,0.3,0.5,0.7,0.5,1.4
			C114.1,133.4,113.9,134.5,113.6,136.5z M114.4,129.6c-0.4,0.1-0.7,0.1-1,0.1c-1.4,0-2.1-0.5-2.1-1.5c0-0.4,0.1-0.9,0.3-1.5
			c0.4-0.1,0.7-0.1,1-0.1c1.4,0,2.1,0.5,2.1,1.5C114.7,128.5,114.6,129,114.4,129.6z"/>
		<path class="st1" d="M120.3,131.3c0.1,0,0.3,0.1,0.4,0.1c0.1,0.1,0.2,0.2,0.2,0.3c-1.4,1-2.2,2.3-2.5,4.1c0.3-0.8,0.7-1.4,1.1-2
			c0.4-0.6,0.9-1,1.3-1.3c0.9-0.5,1.7-0.8,2.6-0.8s1.5,0.4,2.1,1.2c0.6,0.8,0.9,1.9,0.9,3.3c0,1.5-0.3,2.9-0.9,4.2
			c-0.7,1.4-1.7,2.4-2.9,3c-0.7,0.3-1.5,0.5-2.4,0.5c-1.2,0-2.2-0.5-3.1-1.4c-0.9-0.9-1.3-2.3-1.3-4c0-1.8,0.4-3.3,1.3-4.6
			C117.8,132.4,118.9,131.6,120.3,131.3z M122,133.1c-0.9,0-1.7,0.6-2.4,1.8c-0.7,1.2-1,2.4-1,3.6c0,2.5,0.7,3.8,2,3.8
			c0.9,0,1.7-0.6,2.3-1.8c0.6-1.2,0.9-2.6,0.9-4.1C123.7,134.2,123.1,133.1,122,133.1z"/>
		<path class="st1" d="M135.8,131.5c0.8,0,1.4,0.3,1.8,0.8c0.3,0.5,0.5,1.2,0.5,2c0,0.9-0.1,2.1-0.4,3.6c-0.3,1.6-0.4,2.7-0.4,3.4
			s0.1,1.2,0.3,1.6c0.2,0.3,0.5,0.6,0.9,0.9c-0.2,0-0.4,0-0.8,0c-1.2,0-2-0.2-2.5-0.5c-0.5-0.4-0.7-1-0.7-1.9c0-0.5,0.1-1.5,0.4-3
			c0.3-1.5,0.4-2.6,0.4-3.3c0-0.9-0.3-1.4-0.8-1.4c-0.3,0-0.7,0.2-1.1,0.6c-0.4,0.4-0.8,0.9-1.2,1.5c-0.4,0.7-0.7,1.5-0.9,2.5
			c-0.3,1-0.4,2-0.4,3c0,1,0.1,1.8,0.1,2.2c-0.5,0-0.7,0.1-0.9,0.1c-0.8,0-1.4-0.1-1.7-0.4c-0.3-0.3-0.5-0.7-0.5-1.4
			c0-0.3,0.1-1.3,0.4-3.2c0.3-1.8,0.4-3.3,0.4-4.4s-0.1-2.1-0.3-3c1,0.3,1.7,0.8,2.1,1.4c0.4,0.6,0.6,1.2,0.6,2
			c0,0.8-0.1,1.6-0.3,2.6c0.5-1.6,1.2-2.9,2.2-3.9C134.1,132.1,135,131.5,135.8,131.5z"/>
	</g>
	<g class="st1">
		<g>
			<path class="st1" d="M65.2,116.4v-2.8c-0.3,0.5-0.8,1-1.2,1.4c-0.5,0.5-1,0.9-1.2,1.4L65.2,116.4L65.2,116.4z M62.6,116.8
				c-0.2,0.3-0.3,0.9-0.1,1.5h-1c-0.1-0.1-0.1-0.3-0.1-0.5v-0.3c0.1-0.9,0.7-1.7,1.4-2.4c0.5-0.5,0.9-0.9,1.3-1.2
				c0.5-0.5,1-1,1.5-1.9c0.1-0.2,0.3-0.2,0.3-0.2v6.5h-0.7v-1.5L62.6,116.8L62.6,116.8z"/>
			<path class="st1" d="M59.9,117.4l0.5-4.6c0.1-0.6,0.2-0.9,1-1.6c-0.5-0.1-0.8,0.3-1.2,0.2h-3.4c-0.7-0.1-0.9,0.6-0.8,0.8
				c0.1-0.2,0.2-0.2,0.4-0.3h3.2c0,0-0.4,0.5-0.5,1.1c0,0-0.4,3.9-0.3,5.2c0.1,2.5,1.9,3.8,2.7,3.7
				C60.3,120.8,59.8,119.3,59.9,117.4"/>
			<path class="st1" d="M71.3,116.4c-0.3-0.9-1.6-1.8-1.6-1.8c-0.9-0.9-1.6-2-1.7-2.6l-0.4-0.1v6.5h0.5v-4.4c0.3,0.9,1.7,2,1.7,2
				s1.1,0.9,1.6,2.2l0.3,0.2v-6.4h-0.6L71.3,116.4L71.3,116.4z"/>
			<path class="st1" d="M74.3,109.2c-0.5,0-0.8,0.4-0.8,0.8c0,0.4,0.4,0.8,0.8,0.8c0.4,0,0.8-0.4,0.8-0.8C75.1,109.6,74.7,109.2,74.3,109.2"/>
			<path class="st1" d="M90.5,117.7c0.1,0.1,0.1,0.1,0.2,0.2c0.6-0.4,0.9-0.8,1.1-1.4c0.4-1.1,0.4-2-0.2-3.1c-0.3-0.5-0.7-0.9-1.1-1.2
				c-0.1-0.1-0.3-0.2-0.3-0.3c-0.5,0.4-1,0.9-1.2,1.6c-0.2,0.7-0.1,1.6,0.3,2.5C89.6,116.8,90,117.2,90.5,117.7 M90.5,119.2
				L90.5,119.2c-0.8-0.8-1.4-1.5-2-2.7c-0.3-0.5-0.3-1-0.3-1.5v-0.1c0-0.6,0.1-1.1,0.3-1.6c0.4-0.9,1.1-1.5,1.9-2.2
				c0,0.1,0.1,0.1,0.1,0.2c0.4,0.5,1.7,1.4,2.2,2.3c0.3,0.5,0.4,0.9,0.4,1.4v0.1c0,0.7-0.3,1.2-0.5,1.7c-0.4,0.6-0.9,1.1-1.3,1.5
				c0.3,0.4,0.8,0.7,0.9,1.1c0.3,0.6,0.4,0.9,0.3,1.7c-0.1,0.2-0.4,0.9-0.7,0.9C92.1,121,91.1,119.8,90.5,119.2"/>
			<polygon points="85.8,115.9 83.5,115.9 83.5,111.9 82.7,111.9 82.7,118.1 83.5,118.1 83.5,116.4 85.8,116.4 85.8,118.2 
				86.7,118.2 86.7,111.9 85.8,111.9 			"/>
			<path class="st1" d="M79.9,114.8c-0.9-0.4-1.6-0.7-2.2-1.2c-0.3-0.3-0.3-0.8,0-1.1c0.3-0.3,0.9-0.2,1.3,0c0.4,0.2,0.5,0.5,0.8,0.8
				c0.2,0.2,0.4,0.3,0.6,0.2c-0.1-0.4-0.3-0.8-0.7-1.1c-0.8-0.7-2.2-0.5-2.7,0c-0.6,0.7-0.4,1.3,0.2,1.9c0.7,0.7,1.8,0.9,2.8,1.9
				c0.5,0.4,0.5,1.1-0.1,1.5c-0.4,0.3-1.2,0.3-1.8,0.1c-0.5-0.2-0.6-0.4-1-0.9c-0.2-0.3-0.4-0.6-0.9-0.6c0.1,0.8,0.7,1.4,1.4,1.8
				c1,0.4,2.1,0.3,3-0.3C81.7,117,81.5,115.6,79.9,114.8"/>
			<rect x="73.9" y="111.9" width="0.8" height="6.4"/>
		</g>
		<g>
			<path class="st1" d="M54.1,118h-0.6v-1h-1.6v1h-0.6v-1.2l1.1-3h0.6l1.1,3V118z M53.3,116.4l-0.7-1.7l-0.7,1.7H53.3z"/>
		</g>
		<g>
			<path class="st1" d="M99.1,117.9h-2v-4.3h2.2c0.2,0,0.3,0.1,0.4,0.2c0.1,0.1,0.2,0.3,0.2,0.4l0,0.2v0.8l0,0.1c0,0.1-0.1,0.3-0.1,0.3l0,0
				l0,0.1c0.1,0.1,0.1,0.2,0.1,0.3l0,0.1v0.8l0,0.1c0,0.1-0.1,0.3-0.2,0.4c-0.1,0.1-0.3,0.2-0.4,0.2L99.1,117.9z M99.1,115.5
				L99.1,115.5L99.1,115.5c0.1-0.1,0.2-0.1,0.2-0.2l0-0.1v-0.8l0-0.1c0-0.1-0.1-0.1-0.1-0.1h-0.1h-1.4v1.2H99.1z M99.1,117.3
				L99.1,117.3c0.1-0.1,0.2-0.1,0.2-0.2l0-0.1v-0.8l0-0.1c0-0.1-0.1-0.1-0.1-0.1l-0.1,0l0,0h-1.4v1.2L99.1,117.3L99.1,117.3z"/>
			<path class="st1" d="M102.8,117.9l-0.8-1.8h-0.8v1.8h-0.6v-4.3h2.2c0.4,0.1,0.6,0.3,0.7,0.7l0,0.1v0.8l0,0.1c-0.1,0.4-0.3,0.6-0.7,0.7h-0.1
				l0.8,1.8L102.8,117.9L102.8,117.9z M102.6,115.5L102.6,115.5c0.1-0.1,0.2-0.1,0.2-0.2l0-0.1v-0.8l0-0.1c0-0.1-0.1-0.1-0.1-0.1
				h-0.1h-1.4v1.2H102.6z"/>
			<path class="st1" d="M107,117.9h-0.6v-1h-1.7v1h-0.6v-1.2l1.1-3h0.6l1.1,3L107,117.9L107,117.9z M106.2,116.3l-0.7-1.7l-0.7,1.7H106.2z"/>
			<path class="st1" d="M110,117.9l-1.7-3v3h-0.6v-4.3h0.6l1.7,3v-3h0.6v4.3H110z"/>
			<path class="st1" d="M113.3,117.9h-2v-4.3h2.2c0.1,0,0.3,0.1,0.4,0.2c0.1,0.1,0.2,0.3,0.2,0.5l0,0.1v2.8c0,0.1-0.1,0.3-0.2,0.4
				c-0.1,0.1-0.3,0.2-0.4,0.2L113.3,117.9z M113.3,117.3L113.3,117.3c0.2-0.1,0.2-0.1,0.2-0.2l0-0.1v-2.7c0-0.1-0.1-0.1-0.1-0.1
				h-0.1h-1.4v3.1H113.3z"/>
		</g>
	</g>
	<line class="st0" x1="117.2" y1="115.9" x2="138.6" y2="115.9"/>
	<line class="st0" x1="26.7" y1="116.1" x2="47.4" y2="116.1"/>
</g>
</svg>
